<?xml version="1.0" encoding="UTF-8"?>
<svg xmlns="http://www.w3.org/2000/svg" xmlns:xlink="http://www.w3.org/1999/xlink" width="150px" height="41px" viewBox="0 0 148 41" version="1.1">
<g id="surface1">
<path style=" stroke:none;fill-rule:nonzero;fill:rgb(95.686275%,26.27451%,21.176471%);fill-opacity:1;" d="M 15.382812 0.226562 C 17.539062 0.226562 19.382812 0.226562 21.539062 0.226562 C 21.539062 12.914062 21.539062 25.289062 21.539062 37.976562 C 19.078125 38.285156 16.617188 38.597656 14.460938 38.90625 C 11.382812 31.171875 6.152344 17.863281 6.152344 17.863281 C 6.152344 17.863281 6.152344 31.171875 6.152344 39.835938 C 7.386719 39.835938 5.539062 39.835938 0 40.765625 C 0 27.457031 0 13.839844 0 0.535156 C 2.464844 0.535156 6.152344 0.535156 6.152344 0.535156 L 15.382812 23.125 C 15.382812 23.125 15.382812 8.890625 15.382812 0.226562 Z M 45.230469 6.414062 C 45.230469 4.558594 45.230469 2.082031 45.230469 0.226562 C 39.386719 0.226562 33.539062 0.226562 27.691406 0.226562 C 27.691406 12.605469 27.691406 24.980469 27.691406 37.359375 C 33.539062 36.742188 39.386719 36.121094 45.230469 35.503906 C 45.230469 33.644531 45.230469 31.171875 45.230469 29.3125 C 41.539062 29.621094 37.84375 29.621094 33.84375 30.554688 C 33.84375 27.148438 33.84375 25.289062 33.84375 21.886719 C 36.613281 21.886719 40.308594 21.886719 43.074219 21.886719 C 43.074219 20.027344 43.074219 17.554688 43.074219 15.695312 C 40.308594 15.695312 36.613281 15.695312 33.84375 15.695312 C 33.84375 12.296875 33.84375 9.816406 33.84375 6.414062 C 35.691406 6.722656 43.691406 6.722656 45.230469 6.414062 Z M 49.230469 6.414062 C 49.539062 6.414062 55.078125 6.414062 55.382812 6.414062 C 55.382812 16.316406 55.382812 24.980469 55.382812 34.882812 C 57.535156 34.882812 59.382812 34.882812 61.535156 34.574219 C 61.535156 24.671875 61.535156 16.316406 61.535156 6.414062 C 63.691406 6.414062 65.535156 6.414062 67.691406 6.414062 C 67.691406 4.558594 67.691406 2.082031 67.691406 0.226562 C 61.230469 0.226562 55.691406 0.226562 49.230469 0.226562 C 49.230469 2.082031 49.230469 4.558594 49.230469 6.414062 Z M 88 0.226562 C 82.152344 0.226562 76.617188 0.226562 70.765625 0.226562 C 70.765625 11.984375 70.765625 22.507812 70.765625 34.261719 C 71.382812 34.261719 72 34.261719 72.617188 34.261719 C 73.84375 34.261719 75.382812 34.261719 76.921875 34.261719 C 76.921875 29.3125 76.921875 26.839844 76.921875 21.886719 C 77.230469 21.886719 84.304688 21.886719 85.226562 21.886719 C 85.226562 20.027344 85.226562 17.554688 85.226562 15.695312 C 84.304688 15.695312 77.230469 15.695312 76.921875 15.695312 C 76.921875 12.605469 76.921875 9.507812 76.921875 6.414062 C 77.539062 6.414062 86.460938 6.414062 88 6.414062 C 88 4.867188 88 2.082031 88 0.226562 Z M 98.460938 29.621094 C 98.460938 19.410156 98.460938 10.4375 98.460938 0.226562 C 96.308594 0.226562 94.457031 0.226562 92.304688 0.226562 C 92.304688 11.984375 92.304688 23.125 92.304688 34.882812 C 97.84375 35.195312 103.382812 35.503906 108.921875 36.121094 C 108.921875 34.261719 108.921875 32.097656 108.921875 30.242188 C 105.539062 29.929688 101.84375 29.621094 98.460938 29.621094 Z M 113.847656 36.433594 C 116 36.742188 117.847656 36.742188 120 37.050781 C 120 24.671875 120 12.605469 120 0.226562 C 117.847656 0.226562 116 0.226562 113.847656 0.226562 C 113.847656 12.605469 113.847656 24.363281 113.847656 36.433594 Z M 139.691406 19.410156 C 142.460938 13.222656 144.917969 7.03125 147.691406 0.535156 C 145.539062 0.535156 143.074219 0.535156 140.921875 0.535156 C 139.382812 4.558594 138.152344 7.34375 136.613281 11.054688 C 135.074219 7.03125 134.152344 4.25 132.613281 0.535156 C 130.460938 0.535156 128 0.535156 125.84375 0.535156 C 128.308594 6.722656 130.460938 12.914062 133.230469 19.410156 C 130.460938 25.597656 128 31.789062 125.230469 37.976562 C 127.382812 38.285156 129.535156 38.597656 131.691406 38.90625 C 133.230469 34.882812 134.765625 32.097656 136.308594 28.074219 C 137.84375 32.410156 139.382812 35.503906 140.921875 39.835938 C 143.074219 40.144531 145.847656 40.453125 147.996094 40.765625 C 144.917969 33.335938 142.152344 25.910156 139.691406 19.410156 Z M 139.691406 19.410156 "/>
</g>
</svg>
