<svg xmlns="http://www.w3.org/2000/svg" xmlns:xlink="http://www.w3.org/1999/xlink" version="1.1" viewBox="0 62.63 167.35 45.58">
<g id="surface1">
<path style=" stroke:none;fill-rule:nonzero;fill:rgb(95.686275%,26.27451%,21.176471%);fill-opacity:1;" d="M 17.394531 62.625 C 19.832031 62.625 21.917969 62.625 24.355469 62.625 C 24.355469 76.890625 24.355469 90.804688 24.355469 105.070312 C 21.570312 105.417969 18.789062 105.765625 16.351562 106.113281 C 12.871094 97.417969 6.957031 82.457031 6.957031 82.457031 C 6.957031 82.457031 6.957031 97.417969 6.957031 107.160156 C 8.351562 107.160156 6.261719 107.160156 0 108.203125 C 0 93.242188 0 77.933594 0 62.972656 C 2.785156 62.972656 6.957031 62.972656 6.957031 62.972656 L 17.394531 88.371094 C 17.394531 88.371094 17.394531 72.367188 17.394531 62.625 Z M 51.144531 69.582031 C 51.144531 67.496094 51.144531 64.710938 51.144531 62.625 C 44.535156 62.625 37.921875 62.625 31.3125 62.625 C 31.3125 76.542969 31.3125 90.457031 31.3125 104.375 C 37.921875 103.679688 44.535156 102.984375 51.144531 102.289062 C 51.144531 100.199219 51.144531 97.417969 51.144531 95.328125 C 46.96875 95.675781 42.792969 95.675781 38.269531 96.722656 C 38.269531 92.894531 38.269531 90.804688 38.269531 86.980469 C 41.402344 86.980469 45.578125 86.980469 48.707031 86.980469 C 48.707031 84.890625 48.707031 82.109375 48.707031 80.019531 C 45.578125 80.019531 41.402344 80.019531 38.269531 80.019531 C 38.269531 76.195312 38.269531 73.410156 38.269531 69.582031 C 40.359375 69.929688 49.402344 69.929688 51.144531 69.582031 Z M 55.667969 69.582031 C 56.015625 69.582031 62.277344 69.582031 62.625 69.582031 C 62.625 80.714844 62.625 90.457031 62.625 101.589844 C 65.058594 101.589844 67.148438 101.589844 69.582031 101.242188 C 69.582031 90.109375 69.582031 80.714844 69.582031 69.582031 C 72.019531 69.582031 74.105469 69.582031 76.542969 69.582031 C 76.542969 67.496094 76.542969 64.710938 76.542969 62.625 C 69.234375 62.625 62.972656 62.625 55.667969 62.625 C 55.667969 64.710938 55.667969 67.496094 55.667969 69.582031 Z M 99.503906 62.625 C 92.894531 62.625 86.632812 62.625 80.019531 62.625 C 80.019531 75.847656 80.019531 87.675781 80.019531 100.894531 C 80.714844 100.894531 81.414062 100.894531 82.109375 100.894531 C 83.5 100.894531 85.238281 100.894531 86.980469 100.894531 C 86.980469 95.328125 86.980469 92.546875 86.980469 86.980469 C 87.328125 86.980469 95.328125 86.980469 96.371094 86.980469 C 96.371094 84.890625 96.371094 82.109375 96.371094 80.019531 C 95.328125 80.019531 87.328125 80.019531 86.980469 80.019531 C 86.980469 76.542969 86.980469 73.0625 86.980469 69.582031 C 87.675781 69.582031 97.765625 69.582031 99.503906 69.582031 C 99.503906 67.84375 99.503906 64.710938 99.503906 62.625 Z M 111.332031 95.675781 C 111.332031 84.195312 111.332031 74.105469 111.332031 62.625 C 108.898438 62.625 106.808594 62.625 104.375 62.625 C 104.375 75.847656 104.375 88.371094 104.375 101.589844 C 110.636719 101.941406 116.898438 102.289062 123.164062 102.984375 C 123.164062 100.894531 123.164062 98.460938 123.164062 96.371094 C 119.335938 96.023438 115.160156 95.675781 111.332031 95.675781 Z M 128.730469 103.332031 C 131.164062 103.679688 133.253906 103.679688 135.6875 104.027344 C 135.6875 90.109375 135.6875 76.542969 135.6875 62.625 C 133.253906 62.625 131.164062 62.625 128.730469 62.625 C 128.730469 76.542969 128.730469 89.761719 128.730469 103.332031 Z M 157.953125 84.195312 C 161.085938 77.238281 163.867188 70.277344 167 62.972656 C 164.566406 62.972656 161.78125 62.972656 159.347656 62.972656 C 157.605469 67.496094 156.214844 70.628906 154.476562 74.800781 C 152.734375 70.277344 151.691406 67.148438 149.953125 62.972656 C 147.515625 62.972656 144.734375 62.972656 142.296875 62.972656 C 145.082031 69.929688 147.515625 76.890625 150.648438 84.195312 C 147.515625 91.152344 144.734375 98.113281 141.601562 105.070312 C 144.039062 105.417969 146.472656 105.765625 148.910156 106.113281 C 150.648438 101.589844 152.386719 98.460938 154.128906 93.9375 C 155.867188 98.808594 157.605469 102.289062 159.347656 107.160156 C 161.78125 107.507812 164.914062 107.855469 167.347656 108.203125 C 163.867188 99.851562 160.738281 91.503906 157.953125 84.195312 Z M 157.953125 84.195312 "/>
</g>
</svg>